<svg width="30" height="23" viewBox="0 0 30 23" fill="none" xmlns="http://www.w3.org/2000/svg">
<path d="M24.9131 2.35806C28.1882 7.15245 29.8057 12.5604 29.2011 18.7861C29.1985 18.8125 29.1848 18.8367 29.163 18.8526C26.6828 20.6658 24.2798 21.7662 21.9105 22.496C21.892 22.5016 21.8723 22.5013 21.854 22.4951C21.8358 22.489 21.8199 22.4773 21.8086 22.4617C21.2612 21.7034 20.7639 20.904 20.3282 20.0645C20.3032 20.0151 20.326 19.9555 20.3775 19.936C21.1674 19.6397 21.9185 19.2846 22.6409 18.8641C22.6978 18.8309 22.7015 18.7497 22.6489 18.7107C22.4956 18.5974 22.3437 18.4783 22.1983 18.3592C22.1711 18.3372 22.1345 18.3328 22.1037 18.3476C17.4133 20.5041 12.2752 20.5041 7.52941 18.3476C7.4986 18.3339 7.46198 18.3386 7.43552 18.3603C7.29052 18.4794 7.13827 18.5974 6.98638 18.7107C6.93382 18.7497 6.93817 18.8309 6.99545 18.8641C7.71791 19.2766 8.46901 19.6397 9.2578 19.9375C9.30892 19.957 9.33321 20.0151 9.30783 20.0645C8.88153 20.9051 8.38418 21.7045 7.82666 22.4628C7.80237 22.4935 7.7625 22.5075 7.72479 22.496C5.36674 21.7662 2.96373 20.6658 0.483507 18.8526C0.462845 18.8367 0.447982 18.8114 0.445807 18.7851C-0.0595168 13.3999 0.970344 7.94718 4.72983 2.35698C4.73889 2.34218 4.75266 2.33063 4.76861 2.32378C6.61845 1.47852 8.60023 0.856661 10.6716 0.501521C10.7093 0.495747 10.747 0.513071 10.7665 0.546275C11.0225 0.997417 11.315 1.57596 11.5129 2.04876C13.6962 1.71672 15.9137 1.71672 18.1427 2.04876C18.3406 1.58607 18.623 0.997417 18.8778 0.546275C18.8869 0.529803 18.901 0.516606 18.918 0.508569C18.9351 0.500532 18.9542 0.498065 18.9728 0.501521C21.0452 0.857744 23.027 1.4796 24.8754 2.32378C24.8917 2.33063 24.9051 2.34218 24.9131 2.35806ZM12.6229 12.5972C12.6457 11.0052 11.4799 9.68787 10.0165 9.68787C8.56507 9.68787 7.41051 10.9937 7.41051 12.5972C7.41051 14.2004 8.58791 15.5062 10.0165 15.5062C11.4683 15.5062 12.6229 14.2004 12.6229 12.5972ZM22.2588 12.5972C22.2817 11.0052 21.1159 9.68787 19.6528 9.68787C18.201 9.68787 17.0465 10.9937 17.0465 12.5972C17.0465 14.2004 18.2239 15.5062 19.6528 15.5062C21.1159 15.5062 22.2588 14.2004 22.2588 12.5972Z" fill="white"/>
</svg>
