<svg width="26" height="25" viewBox="0 0 26 25" fill="none" xmlns="http://www.w3.org/2000/svg">
<path d="M9.00834 12.5C9.00834 10.1989 10.8733 8.333 13.1745 8.333C15.4757 8.333 17.3417 10.1989 17.3417 12.5C17.3417 14.8011 15.4757 16.667 13.1745 16.667C10.8733 16.667 9.00834 14.8011 9.00834 12.5ZM6.75565 12.5C6.75565 16.045 9.62937 18.9186 13.1745 18.9186C16.7197 18.9186 19.5934 16.045 19.5934 12.5C19.5934 8.955 16.7197 6.0814 13.1745 6.0814C9.62937 6.0814 6.75565 8.955 6.75565 12.5ZM18.3474 5.8269C18.3473 6.12357 18.4352 6.41362 18.5999 6.66036C18.7646 6.9071 18.9988 7.09945 19.2729 7.21309C19.5469 7.32673 19.8485 7.35656 20.1395 7.29879C20.4305 7.24103 20.6979 7.09828 20.9078 6.88858C21.1176 6.67889 21.2606 6.41167 21.3186 6.12072C21.3766 5.82978 21.347 5.52816 21.2336 5.25403C21.1202 4.97989 20.928 4.74555 20.6814 4.58063C20.4347 4.41571 20.1448 4.32762 19.8481 4.3275H19.8475C19.4498 4.32769 19.0685 4.4857 18.7872 4.76683C18.5059 5.04797 18.3478 5.42924 18.3474 5.8269ZM8.12431 22.6747C6.90556 22.6192 6.24313 22.4162 5.80292 22.2447C5.21929 22.0175 4.80288 21.7469 4.36506 21.3097C3.92724 20.8725 3.65623 20.4565 3.43002 19.8729C3.25841 19.4329 3.05541 18.7703 3 17.5516C2.9394 16.234 2.9273 15.8382 2.9273 12.5001C2.9273 9.162 2.9404 8.7673 3 7.4486C3.05551 6.2299 3.26001 5.5686 3.43002 5.1273C3.65723 4.5437 3.92784 4.1273 4.36506 3.6895C4.80228 3.2517 5.21829 2.9807 5.80292 2.7545C6.24293 2.5829 6.90556 2.3799 8.12431 2.3245C9.44196 2.2639 9.83778 2.2518 13.1745 2.2518C16.5112 2.2518 16.9075 2.2649 18.2262 2.3245C19.445 2.38 20.1063 2.5845 20.5476 2.7545C21.1312 2.9807 21.5476 3.2523 21.9855 3.6895C22.4233 4.1267 22.6933 4.5437 22.9205 5.1273C23.0921 5.5673 23.2951 6.2299 23.3505 7.4486C23.4111 8.7673 23.4232 9.162 23.4232 12.5001C23.4232 15.8382 23.4111 16.2329 23.3505 17.5516C23.295 18.7703 23.091 19.4327 22.9205 19.8729C22.6933 20.4565 22.4227 20.8729 21.9855 21.3097C21.5482 21.7465 21.1312 22.0175 20.5476 22.2447C20.1076 22.4163 19.445 22.6193 18.2262 22.6747C16.9086 22.7353 16.5127 22.7474 13.1745 22.7474C9.83628 22.7474 9.44156 22.7353 8.12431 22.6747ZM8.02081 0.0757C6.69005 0.1363 5.78072 0.3473 4.98658 0.6563C4.16415 0.9754 3.46792 1.4035 2.7722 2.0981C2.07647 2.7927 1.64945 3.49 1.33034 4.3124C1.02133 5.107 0.810317 6.0158 0.749714 7.3465C0.688112 8.6793 0.674011 9.1054 0.674011 12.5C0.674011 15.8946 0.688112 16.3207 0.749714 17.6535C0.810317 18.9843 1.02133 19.893 1.33034 20.6876C1.64945 21.5095 2.07657 22.2076 2.7722 22.9019C3.46782 23.5962 4.16415 24.0237 4.98658 24.3437C5.78222 24.6527 6.69005 24.8637 8.02081 24.9243C9.35436 24.9849 9.77978 25 13.1745 25C16.5692 25 16.9954 24.9859 18.3282 24.9243C19.6591 24.8637 20.5678 24.6527 21.3624 24.3437C22.1844 24.0237 22.8811 23.5965 23.5768 22.9019C24.2726 22.2073 24.6987 21.5095 25.0187 20.6876C25.3277 19.893 25.5397 18.9842 25.5993 17.6535C25.6599 16.3197 25.674 15.8946 25.674 12.5C25.674 9.1054 25.6599 8.6793 25.5993 7.3465C25.5387 6.0157 25.3277 5.1065 25.0187 4.3124C24.6987 3.4905 24.2715 2.7938 23.5768 2.0981C22.8822 1.4024 22.1844 0.9754 21.3634 0.6563C20.5678 0.3473 19.659 0.1353 18.3292 0.0757C16.9964 0.0151 16.5702 0 13.1755 0C9.78078 0 9.35436 0.0141 8.02081 0.0757Z" fill="url(#paint0_radial_114_38)"/>
<path d="M9.00834 12.5C9.00834 10.1989 10.8733 8.333 13.1745 8.333C15.4757 8.333 17.3417 10.1989 17.3417 12.5C17.3417 14.8011 15.4757 16.667 13.1745 16.667C10.8733 16.667 9.00834 14.8011 9.00834 12.5ZM6.75565 12.5C6.75565 16.045 9.62937 18.9186 13.1745 18.9186C16.7197 18.9186 19.5934 16.045 19.5934 12.5C19.5934 8.955 16.7197 6.0814 13.1745 6.0814C9.62937 6.0814 6.75565 8.955 6.75565 12.5ZM18.3474 5.8269C18.3473 6.12357 18.4352 6.41362 18.5999 6.66036C18.7646 6.9071 18.9988 7.09945 19.2729 7.21309C19.5469 7.32673 19.8485 7.35656 20.1395 7.29879C20.4305 7.24103 20.6979 7.09828 20.9078 6.88858C21.1176 6.67889 21.2606 6.41167 21.3186 6.12072C21.3766 5.82978 21.347 5.52816 21.2336 5.25403C21.1202 4.97989 20.928 4.74555 20.6814 4.58063C20.4347 4.41571 20.1448 4.32762 19.8481 4.3275H19.8475C19.4498 4.32769 19.0685 4.4857 18.7872 4.76683C18.5059 5.04797 18.3478 5.42924 18.3474 5.8269ZM8.12431 22.6747C6.90556 22.6192 6.24313 22.4162 5.80292 22.2447C5.21929 22.0175 4.80288 21.7469 4.36506 21.3097C3.92724 20.8725 3.65623 20.4565 3.43002 19.8729C3.25841 19.4329 3.05541 18.7703 3 17.5516C2.9394 16.234 2.9273 15.8382 2.9273 12.5001C2.9273 9.162 2.9404 8.7673 3 7.4486C3.05551 6.2299 3.26001 5.5686 3.43002 5.1273C3.65723 4.5437 3.92784 4.1273 4.36506 3.6895C4.80228 3.2517 5.21829 2.9807 5.80292 2.7545C6.24293 2.5829 6.90556 2.3799 8.12431 2.3245C9.44196 2.2639 9.83778 2.2518 13.1745 2.2518C16.5112 2.2518 16.9075 2.2649 18.2262 2.3245C19.445 2.38 20.1063 2.5845 20.5476 2.7545C21.1312 2.9807 21.5476 3.2523 21.9855 3.6895C22.4233 4.1267 22.6933 4.5437 22.9205 5.1273C23.0921 5.5673 23.2951 6.2299 23.3505 7.4486C23.4111 8.7673 23.4232 9.162 23.4232 12.5001C23.4232 15.8382 23.4111 16.2329 23.3505 17.5516C23.295 18.7703 23.091 19.4327 22.9205 19.8729C22.6933 20.4565 22.4227 20.8729 21.9855 21.3097C21.5482 21.7465 21.1312 22.0175 20.5476 22.2447C20.1076 22.4163 19.445 22.6193 18.2262 22.6747C16.9086 22.7353 16.5127 22.7474 13.1745 22.7474C9.83628 22.7474 9.44156 22.7353 8.12431 22.6747ZM8.02081 0.0757C6.69005 0.1363 5.78072 0.3473 4.98658 0.6563C4.16415 0.9754 3.46792 1.4035 2.7722 2.0981C2.07647 2.7927 1.64945 3.49 1.33034 4.3124C1.02133 5.107 0.810317 6.0158 0.749714 7.3465C0.688112 8.6793 0.674011 9.1054 0.674011 12.5C0.674011 15.8946 0.688112 16.3207 0.749714 17.6535C0.810317 18.9843 1.02133 19.893 1.33034 20.6876C1.64945 21.5095 2.07657 22.2076 2.7722 22.9019C3.46782 23.5962 4.16415 24.0237 4.98658 24.3437C5.78222 24.6527 6.69005 24.8637 8.02081 24.9243C9.35436 24.9849 9.77978 25 13.1745 25C16.5692 25 16.9954 24.9859 18.3282 24.9243C19.6591 24.8637 20.5678 24.6527 21.3624 24.3437C22.1844 24.0237 22.8811 23.5965 23.5768 22.9019C24.2726 22.2073 24.6987 21.5095 25.0187 20.6876C25.3277 19.893 25.5397 18.9842 25.5993 17.6535C25.6599 16.3197 25.674 15.8946 25.674 12.5C25.674 9.1054 25.6599 8.6793 25.5993 7.3465C25.5387 6.0157 25.3277 5.1065 25.0187 4.3124C24.6987 3.4905 24.2715 2.7938 23.5768 2.0981C22.8822 1.4024 22.1844 0.9754 21.3634 0.6563C20.5678 0.3473 19.659 0.1353 18.3292 0.0757C16.9964 0.0151 16.5702 0 13.1755 0C9.78078 0 9.35436 0.0141 8.02081 0.0757Z" fill="url(#paint1_radial_114_38)"/>
<defs>
<radialGradient id="paint0_radial_114_38" cx="0" cy="0" r="1" gradientUnits="userSpaceOnUse" gradientTransform="translate(3.99554 25.1181) scale(32.6367 32.6354)">
<stop offset="0.09" stop-color="white"/>
<stop offset="0.78" stop-color="white"/>
</radialGradient>
<radialGradient id="paint1_radial_114_38" cx="0" cy="0" r="1" gradientUnits="userSpaceOnUse" gradientTransform="translate(15.836 26.2381) scale(25.7222 25.7212)">
<stop offset="0.64" stop-color="white" stop-opacity="0"/>
<stop offset="1" stop-color="white"/>
</radialGradient>
</defs>
</svg>
